<?xml version="1.0" encoding="utf-8"?>
<!-- Generator: Adobe Illustrator 24.3.0, SVG Export Plug-In . SVG Version: 6.00 Build 0)  -->
<svg version="1.1" id="Layer_1" xmlns="http://www.w3.org/2000/svg" xmlns:xlink="http://www.w3.org/1999/xlink" x="0px" y="0px"
	 viewBox="0 0 798.1 662.1" style="enable-background:new 0 0 798.1 662.1;" xml:space="preserve">
<style type="text/css">
	.st0{fill:#FFE065;}
</style>
<path class="st0" d="M725.6,589.5c0.6-29.6,1-59.3,1.3-88.9c0.1-12.1,0.2-24.2,0.4-36.3c0.2-12.2,0.5-24.1,0.7-36
	c0.1-11.7,0.2-23.1,0.3-34.5c0.4-29.4,2.3-50-12.9-75.3c-17-10.1-17-10.1-42.5-13.2c-10.4,0.1-20.5,0.3-30.7,0.4
	c-11.3,0.1-22.2,0.2-33.2,0.3c-11.8,0.2-23.2,0.5-34.7,0.7c-32.9,0.3-65.8,0.7-98.7,1.3c-7.5,0.2-14.8,0.3-22.1,0.4v-99.8l-36.3-9.1
	v-18.1c21-10.5,31.4-17.2,45.3-36.3c4-29.8,4.2-52.8-6.9-81.1c-17.4-32.9-32-49.5-65.7-64c-30.4,45.8-65.9,87.6-54.4,145.1
	c18.1,18.1,18.1,18.1,37.4,23.8l17,3.4v36.3h-45.3v99.8c-28.7-0.4-57.4-0.7-86.2-0.9l-35.1-0.2l-34.9-0.5
	c-16.8-0.1-16.8-0.1-33.3-0.2c-30.8-0.3-30.8-0.3-55.3,1.8c-18.1,18.1-18.1,18.1-20.2,44.3c0.1,11.2,0.2,22.2,0.3,33.1
	c0.1,18.2,0.2,36.3,0.4,54.4c0.1,12.6,0.3,25.3,0.4,37.9c0.2,29.2,0.4,58.3,0.7,87.5c0.1,8.1,0.2,16,0.3,23.9
	c-24.3-0.4-48.3-1.3-72.6,0C0,598.6,0,598.6,0,662.1h798.1v-72.6H725.6z M362.8,136c3.1-41.4,7.8-68.8,36.3-99.8
	c28.5,31,34,58.2,36.3,99.8l-18.1,18.1C375.9,149.1,375.9,149.1,362.8,136z M371.8,226.7h54.4v81.6h-54.4V226.7z M335.4,335.1
	c35.1,0,70.1-0.1,105.2-0.2c33.8-0.1,67.6-0.2,101.4-0.2c12.9,0,25.9-0.1,38.8-0.1c18-0.1,36.1-0.1,54.1-0.1l31.2-0.1
	c23.1,1.1,23.1,1.1,32.2,10.2c0.4,21.2,0.4,42.3,0,63.5l-30,8.5c-20.3,5.9-40.6,12-60.7,18.7c-61.3,3.9-113.4,0-172.3-18.1
	c-36.6-3.8-66.7-1.8-102,9.1c-75.6,20.2-149.8,10.8-224.5-9.1l0-81.6C184.4,335.4,259.9,335.2,335.4,335.1z M108.8,435.3l34,9.1
	c73.3,16.2,140,15,210.9-9.1c83.8-6.5,83.8-6.5,122.2,9.1c58.4,23.1,129.1,13.8,186.2-9.1h36.3v154.2H108.8V435.3z M770.9,643.9
	H27.2v-27.2h743.7V643.9z"/>
</svg>
